<svg width="18" height="18" viewBox="0 0 18 18" fill="none" xmlns="http://www.w3.org/2000/svg">
<path d="M6.44 1H2.45455C1.65122 1 1 1.65122 1 2.45455V6.44C1 7.24332 1.65122 7.89454 2.45455 7.89454H6.44C7.24332 7.89454 7.89454 7.24332 7.89454 6.44V2.45455C7.89454 1.65122 7.24332 1 6.44 1Z" stroke="#939393" stroke-linecap="round" stroke-linejoin="round"/>
<path d="M15.4908 1H11.5053C10.702 1 10.0508 1.65122 10.0508 2.45455V6.44C10.0508 7.24332 10.702 7.89454 11.5053 7.89454H15.4908C16.2941 7.89454 16.9453 7.24332 16.9453 6.44V2.45455C16.9453 1.65122 16.2941 1 15.4908 1Z" stroke="#939393" stroke-linecap="round" stroke-linejoin="round"/>
<path d="M6.44 10.1055H2.45455C1.65122 10.1055 1 10.7567 1 11.56V15.5455C1 16.3488 1.65122 17 2.45455 17H6.44C7.24332 17 7.89454 16.3488 7.89454 15.5455V11.56C7.89454 10.7567 7.24332 10.1055 6.44 10.1055Z" stroke="#939393" stroke-linecap="round" stroke-linejoin="round"/>
<path d="M15.4908 10.1055H11.5053C10.702 10.1055 10.0508 10.7567 10.0508 11.56V15.5455C10.0508 16.3488 10.702 17 11.5053 17H15.4908C16.2941 17 16.9453 16.3488 16.9453 15.5455V11.56C16.9453 10.7567 16.2941 10.1055 15.4908 10.1055Z" stroke="#939393" stroke-linecap="round" stroke-linejoin="round"/>
</svg>
