<svg width="16" height="18" viewBox="0 0 16 18" fill="none" xmlns="http://www.w3.org/2000/svg">
<path d="M9.21237 16.7143C9.21237 17.4296 8.63288 18 7.92663 18C7.22038 18 6.63184 17.4296 6.63184 16.7143C6.63184 16.669 6.63184 16.6238 6.64994 16.5785H9.19426C9.19426 16.5785 9.21237 16.669 9.21237 16.7143Z" fill="black"/>
<path d="M9.22985 1.2495C8.84051 1.16801 8.44211 1.1318 8.04371 1.12274H7.91695C7.46423 1.12274 7.02055 1.16801 6.58594 1.26761C6.6131 0.561371 7.18354 0 7.9079 0C8.63226 0 9.19364 0.552317 9.22985 1.2495Z" fill="black"/>
<path d="M13.4409 8.59258V10.6298C13.4409 11.327 13.8031 11.9517 14.3282 12.4226C14.627 12.6852 14.8172 13.0745 14.8172 13.5091C14.8172 14.324 14.1562 14.985 13.3413 14.985H2.47589C1.66098 14.985 1 14.324 1 13.5091C1 13.0745 1.19014 12.6852 1.48894 12.4226C2.00505 11.9517 2.37629 11.327 2.37629 10.6298V8.48392C2.37629 5.38733 4.91155 2.65291 8.01725 2.71629C8.54241 2.72534 9.04946 2.80683 9.52935 2.96076" stroke="black" stroke-linecap="round" stroke-linejoin="round"/>
<path d="M13.0327 7.50609C14.588 7.50609 15.8487 6.24536 15.8487 4.69018C15.8487 3.13499 14.588 1.87427 13.0327 1.87427C11.4775 1.87427 10.2168 3.13499 10.2168 4.69018C10.2168 6.24536 11.4775 7.50609 13.0327 7.50609Z" fill="#FF3E1D"/>
</svg>
